<svg version="1.1" id="Layer_1" xmlns="http://www.w3.org/2000/svg" xmlns:xlink="http://www.w3.org/1999/xlink" x="0px" y="0px"
	 width="280.097px" height="246.426px" viewBox="0 0 280.097 200.426" enable-background="new 0 0 280.097 246.426"
	 xml:space="preserve">
<g>
	<path fill="#070707" d="M239.416,174.176c0,0-0.354-11.131-1.421-17.405c-1.064-6.274-1.898-10.895-4.5-17.408
		c-2.604-6.513-8.17-12.549-8.998-14.801c-0.832-2.25-0.711-6.985,0-15.273c0.707-8.288,2.96-17.523,6.038-34.22
		c2.886-15.666,4.338-36.122-7.342-48.668c-3.196-3.433-7.46-1.188-10.773,0.711c-3.32,1.896-10.895,7.813-21.314,22.024
		c-10.423,14.209-17.523,19.181-21.197,20.722c-3.671,1.54-7.342,0.473-12.787,0.473c-5.446,0-49.261-1.537-54.824-1.183
		c-1.105,0.068-2.952,0.387-4.006-0.135c-1.83-0.908-3.35-3.432-4.825-4.828c-1.935-1.833-3.721-4.653-5.625-6.521
		c-7.506-7.369-13.718-14.979-20.217-23.199c-4.793-6.058-10.549-11.644-18.494-12.917c-0.461-0.074-3.506-0.25-5.682,1.433
		c-2.176,1.687-6.749,3.956-9.768,18.519c-3.021,14.565-1.956,30.549-1.067,40.319c0.887,9.767,5.863,25.753,6.571,30.728
		c0.713,4.971,2.31,10.48-0.889,17.227c-3.193,6.752-5.149,12.077-6.393,21.492c-1.243,9.413-1.064,22.912-1.064,22.912h117.459
		c-0.058-0.217-0.121-0.432-0.182-0.646c0.226,0.192,0.357,0.308,0.357,0.308c-6.511-25.71-18.961-35.111-29.255-41.529
		c-11.057-6.892-24.329-7.615-24.329-7.615c0.864,0.043,1.931,0.595,2.754,0.869c0.936,0.313,1.868,0.65,2.79,1.021
		c6.867,2.755,13.211,6.911,18.192,12.415c0.42,0.466,0.823,0.954,1.219,1.448c-2.606,1.045-5.076,2.444-7.786,3.243
		c-2.752,0.812-5.636,1.215-8.497,1.33c-1.986,0.08-3.994-0.035-5.956-0.356c-3.237-0.532-6.274-1.806-8.722-4.027
		c-2.456-2.226-4.23-5.092-6.17-7.745c-2.802-3.833-5.844-7.418-9.345-10.626c-0.071-0.065-1.243-1.01-1.219-1.092
		c0.229-0.669,14.363-12.549,27.557-11.726c16.776,1.042,22.538,11.677,25.816,17.734c1.057,1.947,2.003,4.005,2.823,6.109
		c1.937,1.221,3.8,2.541,5.531,3.986c5.487,4.593,11.086,11.616,15.023,17.521c2.173,3.257,3.671,6.338,4.979,9.638
		c0.99-11.284,4.546-19.671,9.457-26.609c1.113-1.572,2.422-3.26,3.92-4.949c-0.32-6.859-2.285-15.433,3.683-20.132
		c6.032-4.747,15.498-4.867,22.411-2.599c6.969,2.288,14.621,9.839,14.621,9.839s-2.256,1.594-2.87,4.261
		c-0.617,2.666-0.82,5.509-1.641,7.97c-0.82,2.458-6.082,7.651-12.024,8.267c-5.613,0.578-10.009-0.198-14.621-2.53
		c0.925-2.724,1.992-5.081,3.216-6.702c5.386-7.131,9.794-8.975,15.416-10.541c0.4-0.109,0.861-0.115,0.861-0.115
		c-0.061-0.002-0.151-0.019-0.271-0.021c-6.59-0.203-19.789,4.955-28.47,18.725c-5.358,8.505-8.931,21.88-7.145,34.541l0.396-0.274
		c0.005,0.209,0.005,0.406,0.008,0.612H239.416z"/>

</g>

</svg>
